# xmcd
#
# Track frame offsets: 
#        150
#        18463
#        38366
#        55906
#        74279
#        91300
#        111150
#        128780
#        147302
#        173007
#        193399
#        210028
#
# Disc length: 2977 seconds
#
# Revision: 0
# Processed by: cddbd v1.5.2PL0 Copyright (c) Steve Scherf et al.
# Submitted via: ExactAudioCopy v0.90b4
#
DISCID=a00b9f0c
DTITLE=Huellas Del Tiempo - Chapter One
DYEAR=2006
DGENRE=Latin
TTITLE0=No Pensaste En Mi
TTITLE1=Todo Termina
TTITLE2=Nuestro Amor
TTITLE3=Tan Lejos
TTITLE4=Conexion De Amor
TTITLE5=Viviendo Un Sueño
TTITLE6=Reality (Realidad)
TTITLE7=Mas Que Amigos
TTITLE8=Visitar Su Tierra
TTITLE9=Mi Ultimo Adios
TTITLE10=Trago En Mano
TTITLE11=No Se Porque
EXTD=
EXTT0=
EXTT1=
EXTT2=
EXTT3=
EXTT4=
EXTT5=
EXTT6=
EXTT7=
EXTT8=
EXTT9=
EXTT10=
EXTT11=
PLAYORDER=
